PathFileType	4	(X/Y/Z)	F:\MotionCapture\20160217\3\Generated_files\EMG_Fprce_test03-Dynamic.trc
DataRate	CameraRate	NumFrames	NumMarkers	Units	OrigDataRate	OrigDataStartFrame	OrigNumFrames
120.00	120.00	       9	39	mm	120.00	288	       766
Frame#	Time	Top.Head			Front.Head			Rear.Head			R.Shoulder			R.Offset			R.Elbow			R.Wrist			L.Shoulder			L.Elbow			L.Wrist			R.ASIS			L.ASIS			V.Sacral			R.Thigh			R.Knee			R.Shank			R.Ankle			R.Heel			R.Toe			L.Thigh			L.Knee			L.Shank			L.Ankle			L.Heel			L.Toe			R1			R2			R3			R4			R5			R6			R7			L1			L2			L3			L4			L5			L6			L7			V_Mid_ASIS			V_Pelvis_Origin			V_R.Hip_JC			V_L.Hip_JC			V_R.Knee_JC			V_L.Knee_JC			V_R.Ankle_JC			V_L.Ankle_JC			V_Mid_Hip			V_Mid_Shoulder			V_R.Hand			V_L.Hand			V_R.Toe_Offset_Static			V_L.Toe_Offset_Static			V_R.Toe_Offset			V_L.Toe_Offset			
		X1	Y1	Z1	X2	Y2	Z2	X3	Y3	Z3	X4	Y4	Z4	X5	Y5	Z5	X6	Y6	Z6	X7	Y7	Z7	X8	Y8	Z8	X9	Y9	Z9	X10	Y10	Z10	X11	Y11	Z11	X12	Y12	Z12	X13	Y13	Z13	X14	Y14	Z14	X15	Y15	Z15	X16	Y16	Z16	X17	Y17	Z17	X18	Y18	Z18	X19	Y19	Z19	X20	Y20	Z20	X21	Y21	Z21	X22	Y22	Z22	X23	Y23	Z23	X24	Y24	Z24	X25	Y25	Z25	X26	Y26	Z26	X27	Y27	Z27	X28	Y28	Z28	X29	Y29	Z29	X30	Y30	Z30	X31	Y31	Z31	X32	Y32	Z32	X33	Y33	Z33	X34	Y34	Z34	X35	Y35	Z35	X36	Y36	Z36	X37	Y37	Z37	X38	Y38	Z38	X39	Y39	Z39	

288	2.392	214.01123	154.58939	1722.19653	97.00979	154.65384	1646.47424	317.99603	147.56406	1646.42542	241.42458	349.46808	1423.99768	381.34518	96.73663	1269.30493	227.33284	482.62332	1109.01038	19.77264	442.48672	952.29572	241.70763	-55.69223	1413.78528	327.37430	-171.45973	1114.59656	286.27783	-205.87631	859.76715	184.59042	299.01016	933.71234	168.40681	14.07203	942.77087	399.06265	134.55377	939.13757	203.55293	232.76161	550.58301	290.55389	269.15030	453.63809	337.44528	185.80470	226.06369	417.22330	252.17783	71.57460	486.24179	188.41150	46.87231	275.44122	241.54381	37.93815	20.19819	29.52533	686.18903	48.15320	-32.81280	499.76553	29.61788	44.02470	357.92584	119.14142	0.64736	93.26740	174.40096	67.73975	75.30582	-15.21347	-11.87298	76.33719	228.31090	223.79591	36.12091	268.09216	203.04633	41.95784	365.31369	161.88116	48.09610	439.57840	158.78668	41.44039	455.43100	232.75316	45.49724	383.15430	262.70969	36.87519	318.51538	282.72330	35.05268	-59.41927	3.45524	77.27583	-31.34445	22.70965	80.49448	50.49649	77.97373	86.91299	130.64871	92.21149	78.83696	153.91141	23.54023	72.10729	84.03501	-18.05799	62.82770	24.81263	-33.52116	67.60036																																																	1024.59802	-207.25456	-245.23802	
289	2.400	201.82483	153.86363	1719.74280	84.98605	154.26778	1644.33301	305.63425	147.60614	1643.58923	228.70157	349.34442	1421.56201	369.39447	97.03539	1266.60693	211.31961	483.63794	1107.62805	-1.14266	441.09433	958.29120	229.98872	-55.76078	1411.16675	320.75159	-171.45953	1114.52490	286.58817	-209.91144	858.97705	174.10571	299.38120	931.10638	156.26709	13.81119	939.97375	387.65305	133.90872	936.38922	195.94832	233.13306	548.47437	283.92334	268.83401	452.12366	334.28510	185.60786	225.01326	416.86612	251.72404	71.97707	485.91605	187.89906	47.45803	275.27780	241.69325	37.96322	6.91675	30.12250	684.56036	32.56019	-31.22516	498.48489	7.82785	44.89169	358.18887	82.56342	-1.70448	89.17445	137.71893	64.73177	67.57248	-51.66939	-12.42796	79.17233	227.99655	224.19843	35.89814	268.21542	202.94270	41.57671	364.85831	161.80991	48.02566	439.41318	158.37990	41.65840	455.18539	232.18977	46.21381	382.90353	262.30255	36.88256	318.54034	282.61493	35.00459	-96.81460	2.89965	84.70669	-67.69847	22.29020	84.78906	15.25102	76.31534	85.23490	94.18735	89.75070	73.31935	116.61565	20.46103	66.52784	45.75371	-20.24026	60.95279	-13.41790	-34.93169	69.03951																																																	1040.23950	-221.05052	-252.18272	
290	2.408	189.36325	153.53694	1717.34290	72.39796	153.58231	1642.22913	293.27869	147.37712	1640.98157	215.99796	349.09396	1418.69812	357.36090	97.14884	1264.29846	194.40375	485.67087	1105.77283	-21.48553	439.88794	964.14447	217.69960	-56.03967	1408.25061	314.31409	-171.25899	1113.92529	287.16412	-213.78450	858.68512	163.59053	299.49933	928.82544	143.97337	13.41195	937.08258	376.04425	133.04338	933.67493	188.25800	233.65747	546.23468	278.12759	268.72702	450.63831	331.34799	185.85664	224.34221	416.78198	251.89503	71.72161	485.48462	187.06131	48.39592	275.53796	241.59019	37.64095	-5.66572	31.16431	682.25098	17.47227	-29.33860	496.90494	-12.93813	45.73536	358.21536	44.90889	-3.22957	85.16631	97.72297	60.86683	58.60867	-87.34956	-12.96668	83.08015	227.87047	224.53488	35.56331	268.06967	203.04942	41.55395	364.16568	161.54434	47.97329	439.10312	157.97742	42.13141	455.18179	231.76707	47.12755	382.82693	262.02881	36.96322	317.52386	283.09882	35.03381	-132.03386	3.68803	92.86732	-103.11216	21.72635	89.12981	-19.88461	74.41646	85.47231	59.01009	87.21658	68.90209	80.12754	17.17764	61.47050	6.19246	-21.42310	59.04971	-50.43679	-36.68800	71.05558	
291	2.417	177.11452	152.99890	1714.55457	60.05301	153.15569	1639.29688	280.77499	147.11755	1638.09851	202.88397	348.75287	1415.82458	344.99789	96.98351	1261.36108	178.59550	486.55267	1103.96387	-41.47091	438.61716	969.49091	205.62068	-56.55189	1405.58984	306.87436	-171.35603	1113.52014	286.67136	-217.38954	858.45636	151.56786	298.93155	926.25842	131.30389	13.05414	933.87817	364.22580	132.54042	931.18719	180.07062	234.00311	543.83142	272.22797	268.91006	449.02634	328.30664	185.05573	223.16747	415.77661	250.96539	71.64364	485.31851	186.34702	49.32607	275.42606	241.69164	37.49551	-18.21462	31.98507	679.41888	2.09855	-27.58844	495.22839	-33.14440	46.88100	357.71609	10.90550	-6.90916	82.62069	62.73672	57.45963	53.37025	-123.02384	-14.62953	87.30077	227.48180	225.13048	35.65428	267.98328	203.09453	41.43144	363.65054	161.27351	47.95582	438.41074	157.55682	43.01962	454.99554	231.40033	47.81614	382.71347	261.83752	37.10257	318.49258	282.60516	34.86374	-167.05853	2.66641	97.50315	-136.99522	20.59213	94.02963	-53.75002	73.03356	86.00569	24.43601	84.22899	64.95490	43.79836	14.27172	57.39780	-30.01993	-23.58287	59.07869	-86.22295	-38.57870	74.00458	
292	2.425	164.94334	152.43553	1711.72766	47.53722	152.65103	1636.68140	268.23367	146.58530	1635.23547	189.84433	348.44730	1412.89270	332.98578	96.61184	1258.88232	163.00560	487.17892	1102.05579	-61.06218	437.03558	974.77386	193.09067	-56.70869	1402.94263	300.15936	-171.06532	1113.22351	285.91098	-220.91922	858.62567	140.58044	299.35797	923.29193	118.64423	12.60773	930.48749	352.24506	131.40071	928.70422	172.06783	234.77353	541.21796	266.26624	268.82568	447.35272	325.26434	185.08574	222.50447	415.89432	250.76794	72.68706	485.07056	185.76344	50.53071	275.34302	241.80222	37.32093	-30.33032	33.14085	675.85052	-13.36282	-26.42064	493.33527	-52.83046	47.88371	357.57281	-21.67602	-9.57151	82.70515	28.19184	53.73793	49.42127	-156.14073	-15.19752	92.08826	227.25722	225.53024	35.26284	267.86035	203.20403	41.33864	363.39807	160.98264	48.12123	438.16861	157.09526	43.80820	456.15067	230.91742	50.11134	382.73843	261.57999	37.26116	318.50198	282.50806	34.73466	-200.25194	3.10047	103.47340	-170.18521	19.37924	97.81068	-87.14045	71.19653	86.74323	-8.73282	80.38890	62.99857	8.82698	10.80622	54.44609	-64.97348	-26.28921	59.87721	-120.91032	-39.80452	77.37217	
293	2.433	152.53984	151.80385	1708.85059	35.06903	151.96272	1633.86182	255.54617	146.16763	1632.12903	177.22116	348.06445	1409.71790	320.66403	96.15898	1256.39185	147.02405	487.94751	1099.94470	-80.40085	435.82230	979.83136	181.08215	-56.97116	1400.17700	292.51056	-170.75859	1112.71790	285.24768	-223.93074	858.41943	128.91154	299.21573	920.52228	105.91163	12.25901	926.94568	340.01300	130.26489	925.81677	163.77321	235.99777	538.68646	260.15353	268.79340	445.58588	322.50586	185.05252	221.53046	415.27432	250.47580	73.48550	484.76627	185.15697	51.99656	275.24664	241.88399	37.10345	-42.69742	33.91588	672.21069	-27.79612	-25.06254	491.28311	-73.46783	48.64962	357.77200	-53.04470	-13.69149	82.40637	-4.44391	50.20593	46.25233	-189.05280	-16.58360	96.94424	227.27875	225.89645	34.93123	267.59433	203.39613	41.19278	363.48108	160.81401	47.82713	437.77777	156.75844	44.64505	454.52838	230.14691	49.94144	382.66815	261.50531	37.43204	318.50183	282.46936	34.61487	-227.71677	1.13503	113.08159	-201.96152	19.13751	102.95174	-118.77658	69.57126	87.72839	-41.91504	78.09320	60.69092	-25.13012	7.75294	52.62951	-97.08791	-29.20333	61.88699	-154.21109	-41.52498	81.00850																																																	109.88319	280.94235	-28.18874	
294	2.442	139.80574	151.30887	1705.76025	22.10256	151.26987	1630.97839	242.99490	145.55751	1629.32666	164.35281	347.63724	1406.58765	307.97824	95.50922	1253.61841	131.27313	488.24124	1097.74683	-98.84710	434.39594	984.39990	168.29796	-57.80943	1397.47754	284.79388	-171.23550	1112.42676	283.72549	-226.73439	858.35583	116.99188	298.65802	918.05591	92.99350	11.68407	923.51984	327.52084	128.96082	923.35779	154.78427	236.93237	536.39972	253.57758	268.97156	444.25186	318.85052	185.32312	221.23468	414.97366	250.17552	74.32191	484.33167	184.86215	53.23277	275.31741	241.88918	37.06733	-54.81294	35.08562	667.91559	-41.80262	-23.95680	489.41742	-92.01436	49.00529	357.48972	-82.56612	-16.89722	84.31506	-36.63576	47.10843	43.77375	-220.09631	-16.97322	102.26775	227.35518	226.14949	34.74998	268.61514	202.49425	40.64773	363.07120	160.61734	48.36239	437.17358	156.33865	46.13620	453.86337	229.87973	50.99226	382.40414	261.40311	37.44869	318.62170	282.42700	34.58778	-262.12946	2.65106	116.90541	-234.08392	19.11120	107.99516	-148.75699	68.05613	89.42420	-73.13998	75.37783	59.26062	-57.49610	4.48796	51.14526	-129.70364	-31.28885	63.61693	-185.59392	-41.85796	85.44711																																																	109.82825	281.03018	-28.15663	
295	2.450	126.96191	150.64153	1702.71863	9.85803	150.72046	1627.93396	229.99756	145.11668	1626.13464	151.34201	347.01062	1403.33630	295.22586	95.07665	1250.46411	115.54037	488.39914	1095.61877	-117.03843	432.71436	988.72968	155.46907	-58.34665	1394.68518	276.60519	-171.41873	1111.78479	281.22464	-229.26486	858.68750	105.08725	298.79953	914.81305	79.48210	11.48926	919.92468	314.78284	127.93031	920.40131	145.54987	238.29738	534.21899	247.39796	269.12274	442.76819	315.49835	185.35483	220.91373	414.80545	250.12854	75.43283	484.31033	184.32986	55.52680	275.30457	241.89336	36.96101	-66.10863	35.87156	663.42639	-55.77525	-23.20751	487.38226	-110.35000	49.10494	357.61682	-112.50611	-18.75221	84.95721	-66.63639	43.94016	42.15443	-248.69579	-17.01219	107.95283	227.11949	226.98698	35.70641	267.55545	203.42241	41.10413	362.57394	160.47604	48.92018	437.16806	156.42683	47.81983	454.02414	229.63719	52.97734	382.33118	261.60727	37.99773	318.77893	282.31854	34.46458	-290.93576	3.32804	123.23338	-263.26224	19.57075	113.46429	-177.78307	66.52466	91.11629	-102.04996	72.68281	58.43658	-87.97903	1.69019	50.64950	-160.65724	-33.40834	65.70687	-215.85324	-42.82346	89.88311																																																	109.78600	281.13242	-28.17166	986.14728	162.77606	-119.68945	
296	2.458	114.28314	149.76593	1699.68030	-3.11466	149.97412	1625.10193	216.97946	144.56793	1623.18469	138.30499	346.24957	1399.84106	283.22626	94.06203	1247.85815	99.63183	488.29132	1093.30872	-134.69350	431.15390	992.47223	143.05893	-59.07545	1391.90088	267.85757	-171.85570	1111.27881	278.31299	-231.74464	859.15295	93.82306	299.00085	911.97748	66.04559	10.95902	916.85980	301.83102	126.63615	917.75909	140.29207	237.95648	530.96301	241.43910	269.60287	441.60901	312.54254	185.69807	220.40479	414.46777	250.02989	77.06834	483.38800	183.89375	57.68050	275.38046	242.01355	36.93863	-77.84226	37.04869	658.74695	-69.78880	-22.55994	485.43204	-127.90472	48.95107	357.61560	-144.05139	-18.27902	83.81974	-95.89594	41.04480	40.86000	-276.27945	-16.75379	112.87873	227.28163	226.52644	34.55163	267.46243	203.54723	41.03521	362.38135	160.57513	49.93394	436.09836	156.14458	49.32206	453.99210	229.99782	54.49188	382.40729	261.70148	38.56750	318.77057	282.29855	34.29989	-317.56738	3.66276	129.45537	-288.64899	19.14020	119.70424	-205.12943	65.26088	93.46170	-131.19601	70.67683	58.21299	-117.65086	-0.43840	49.95863	-189.77875	-34.51711	68.15263	-243.97571	-43.69358	93.82079																																																	109.71730	281.32056	-28.13215	
